<svg xmlns="http://www.w3.org/2000/svg" viewBox="0 0 512 512">
  <defs>
    <linearGradient id="frame" x1="0" y1="0" x2="1" y2="1">
      <stop offset="0%" stop-color="#314750" />
      <stop offset="100%" stop-color="#16282f" />
    </linearGradient>
    <linearGradient id="panel" x1="0" y1="0" x2="1" y2="1">
      <stop offset="0%" stop-color="#082228" />
      <stop offset="100%" stop-color="#06171d" />
    </linearGradient>
    <linearGradient id="gold" x1="0" y1="0" x2="1" y2="1">
      <stop offset="0%" stop-color="#f7d373" />
      <stop offset="55%" stop-color="#f2b84c" />
      <stop offset="100%" stop-color="#ba7c18" />
    </linearGradient>
    <linearGradient id="card" x1="0" y1="0" x2="1" y2="1">
      <stop offset="0%" stop-color="#183845" />
      <stop offset="100%" stop-color="#0b1f26" />
    </linearGradient>
    <linearGradient id="shine" x1="0" y1="0" x2="1" y2="1">
      <stop offset="0%" stop-color="#ffe8a7" stop-opacity=".86" />
      <stop offset="100%" stop-color="#f2b84c" stop-opacity="0" />
    </linearGradient>
    <linearGradient id="scan" x1="0" y1="0" x2="1" y2="1">
      <stop offset="0%" stop-color="#ffd977" stop-opacity="0" />
      <stop offset="45%" stop-color="#ffd977" stop-opacity=".18" />
      <stop offset="100%" stop-color="#f2b84c" stop-opacity=".72" />
    </linearGradient>
    <filter id="shadow" x="-20%" y="-20%" width="140%" height="140%">
      <feDropShadow dx="0" dy="18" stdDeviation="18" flood-color="#000" flood-opacity=".45" />
    </filter>
  </defs>
  <rect width="512" height="512" rx="96" fill="#030a0d" />
  <rect x="20" y="20" width="472" height="472" rx="88" fill="url(#frame)" />
  <rect x="42" y="42" width="428" height="428" rx="72" fill="#071419" stroke="url(#gold)" stroke-width="3" />
  <rect x="54" y="54" width="404" height="404" rx="60" fill="url(#panel)" />

  <g opacity=".48" stroke="#2dcfca" stroke-width="2" fill="none">
    <rect x="104" y="96" width="304" height="320" rx="8" />
    <path d="M178 96v74h156V96" />
    <path d="M134 170h244" opacity=".4" />
    <circle cx="256" cy="280" r="108" />
    <circle cx="256" cy="280" r="72" opacity=".72" />
    <circle cx="256" cy="280" r="36" opacity=".46" />
    <path d="M148 280h216M256 172v216" opacity=".28" />
  </g>

  <path d="M258 286 396 228 396 342Z" fill="url(#scan)" opacity=".95" />
  <circle cx="256" cy="280" r="7" fill="#f2b84c" />
  <circle cx="148" cy="322" r="8" fill="#2dcfca" />
  <circle cx="194" cy="368" r="7" fill="#2dcfca" />
  <circle cx="354" cy="336" r="6" fill="#9be9df" />
  <circle cx="412" cy="262" r="8" fill="#f2b84c" />
  <circle cx="122" cy="246" r="9" fill="#21c7c2" />

  <g transform="translate(154 116) rotate(8 102 146)" filter="url(#shadow)">
    <path d="M46 14h112l38 18-12 214-93 34-79-52 12-178Z" fill="url(#card)" stroke="url(#gold)" stroke-width="4" />
    <path d="M72 42h102l18 12-8 110-150 0 10-76Z" fill="url(#gold)" opacity=".94" />
    <path d="M82 58c13-16 25-24 38-24 13 0 25 8 37 24-2 26-14 40-37 40-23 0-35-14-38-40Z" fill="#08171d" />
    <path d="M58 164c16-29 40-44 72-44 31 0 55 15 71 44v18H58Z" fill="#0c1b21" />
    <path d="M62 198h58" stroke="#23c8c3" stroke-width="10" stroke-linecap="round" />
    <path d="M62 224h84" stroke="#20c3be" stroke-width="10" stroke-linecap="round" />
    <path d="M62 250h58" stroke="#d89d2f" stroke-width="10" stroke-linecap="round" />
    <path d="M62 272h40" stroke="#49616b" stroke-width="10" stroke-linecap="round" />
    <circle cx="62" cy="205" r="22" fill="none" stroke="url(#gold)" stroke-width="4" />
    <circle cx="62" cy="205" r="9" fill="#d89d2f" />
    <path d="M165 148h24v24l-12 10-12-10Z" fill="#d89d2f" />
    <path d="M52 36 196 36 174 120 44 120Z" fill="url(#shine)" opacity=".56" />
  </g>
</svg>
